# xmcd
#
# Track frame offsets:
#	150
#	18085
#	40012
#	58692
#	72550
#	94860
#	109740
#	125717
#	148305
#	165197
#	180500
#	196425
#	208830
#	222017
#	240875
#	256950
#	269600
#	283875
#	299545
#	314875
#
# Disc length: 4445 seconds
#
# Revision: 0
# Processed by: cddbd v1.4PL0 Copyright (c) Steve Scherf et al.
# Submitted via: EasyCDDAExtractor 4.5.0.2
#
DISCID=3d115b14
DTITLE=JULIO IGLESIAS - GREATEST HITS
DYEAR=1900
DGENRE=
TTITLE0=NATALIE
TTITLE1=ME OLVIDE DE VIVIR
TTITLE2=QUIREME MUCHO
TTITLE3=SOY UN TRUHAN, SOY UN SENOR
TTITLE4=LA PALOMA
TTITLE5=DE NINA A MUJER
TTITLE6=RON Y COCA COLA
TTITLE7=HEY
TTITLE8=A FLOR DE PIEL
TTITLE9=ISLA EN EL SOL
TTITLE10=CU-CU-RRU-CU-CU PALOMA
TTITLE11=QUIREME
TTITLE12=POBRE DIABLO
TTITLE13=JURAME
TTITLE14=CAMINITO
TTITLE15=EL AMOR
TTITLE16=ESTA COBARDIA
TTITLE17=MANUELA
TTITLE18=DE DOMINGO A DOMINGO
TTITLE19=MILONGA
EXTD=
EXTT0=
EXTT1=
EXTT2=
EXTT3=
EXTT4=
EXTT5=
EXTT6=
EXTT7=
EXTT8=
EXTT9=
EXTT10=
EXTT11=
EXTT12=
EXTT13=
EXTT14=
EXTT15=
EXTT16=
EXTT17=
EXTT18=
EXTT19=
PLAYORDER=
